<?xml version="1.0" encoding="utf-8"?>
<!-- Generator: Adobe Illustrator 16.0.3, SVG Export Plug-In . SVG Version: 6.00 Build 0)  -->
<!DOCTYPE svg PUBLIC "-//W3C//DTD SVG 1.1//EN" "http://www.w3.org/Graphics/SVG/1.1/DTD/svg11.dtd">
<svg version="1.1" id="Layer_1" xmlns="http://www.w3.org/2000/svg" xmlns:xlink="http://www.w3.org/1999/xlink" x="0px" y="0px"
	 width="4858.663px" height="1170.907px" viewBox="1594.235 252.059 4858.663 1170.907"
	 enable-background="new 1594.235 252.059 4858.663 1170.907" xml:space="preserve">
<g>
	<path stroke="#FFFFFF" stroke-width="80" stroke-miterlimit="10" d="M1853.155,447.06c20.733,0,42.125,2.375,64.155,7.109
		c22.031,4.734,42.97,10.969,62.845,18.719c25.063,9.5,48.608,20.953,70.641,34.345c22.032,13.391,41.688,30.452,58.97,51.188
		c12.952,15.563,22.233,32.625,27.858,51.203c5.608,18.578,8.422,37.578,8.422,57.016c0,19.438-2.172,39.095-6.483,58.97
		c-4.313,19.875-9.5,38.875-15.547,57.016c0,1.734-0.656,3.891-1.953,6.484c-1.297,2.593-1.938,4.766-1.938,6.483
		c0,0.875-0.219,1.517-0.655,1.953c-0.438,0.438-0.642,1.078-0.642,1.938l-1.281,1.297h-33.702v-2.595
		c12.952-34.563,21.813-65.875,26.563-93.952c4.75-28.078,3.672-53.781-3.234-77.109c-6.922-23.328-19.672-44.5-38.233-63.516
		c-18.578-19-44.719-36.281-78.406-51.845c-25.063-12.094-51.625-20.733-79.702-25.922c-28.095-5.188-55.953-7.781-83.595-7.781
		h-162v893h-31v-924L1853.155,447.06L1853.155,447.06z M2238.107,1292.903c11.234-36.281,19.234-73.859,23.984-112.734
		s3.453-76.234-3.891-112.078c-7.345-35.844-21.828-68.469-43.423-97.844c-21.594-29.375-52.702-52.688-93.313-69.969
		c-32.845-13.813-67.406-22.234-103.688-25.267c-36.281-3.016-72.141-3.672-107.563-1.953v-31
		c45.797-1.719,91.156,0.22,136.094,5.828c44.922,5.625,87.25,19.656,127,42.109c39.75,22.469,68.906,51.828,87.484,88.109
		c18.563,36.28,29.577,75.358,33.047,117.25c3.453,41.891,1.078,84.422-7.125,127.608c-8.219,43.188-18.359,82.906-30.453,119.188
		c-1.734,5.188-3.891,10.358-6.484,15.547c-1.733,3.453-3.03,6.906-3.891,10.358h-33.703c0.859-2.594,2.797-7.563,5.828-14.905
		c3.031-7.344,5.844-14.892,8.438-22.672c2.595-7.767,4.97-15.328,7.125-22.673
		C2235.73,1300.464,2237.232,1295.497,2238.107,1292.903z"/>
	<path stroke="#FFFFFF" stroke-width="80" stroke-miterlimit="10" d="M2463.338,688.06v198.298h4
		c15.547-28.5,34.766-55.281,57.672-80.345c22.892-25.063,48.375-47.094,76.469-66.108c28.078-19,58.095-33.5,90.063-43.47
		c31.969-9.969,65.233-14.094,99.797-12.375v34c-38.017,0.875-74.297,7.563-108.858,20.078
		c-34.563,12.516-65.892,29.781-93.97,51.781c-28.077,22.016-52.266,48.344-72.577,78.984
		c-20.313,30.655-34.781,64.53-43.406,101.641c0,1.734-0.875,6.703-2.594,14.906c-1.734,8.203-2.595,14.031-2.595,17.469
		c0,4.313-0.672,10.797-2,19.422c-1.344,8.642-2,13.828-2,15.547v330.173h-32v-680L2463.338,688.06L2463.338,688.06z"/>
	<path stroke="#FFFFFF" stroke-width="80" stroke-miterlimit="10" d="M3171.213,1365.061
		c-44.063-7.767-83.813-22.234-119.234-43.392c-35.42-21.157-67.813-47.281-97.188-78.375c-32.844-38-55.953-79.875-69.344-125.656
		c-13.406-45.78-19.234-93.28-17.5-142.53c1.719-31.095,8.641-62.203,20.733-93.313c12.095-31.094,26.798-59.172,44.078-84.233
		c35.406-48.375,76.453-84.673,123.108-108.859c46.656-24.188,94.813-38.016,144.5-41.484c49.688-3.453,98.281,3.031,145.813,19.438
		c47.517,16.422,89.844,41.047,127,73.875c37.156,32.844,66.531,73.233,88.125,121.188s31.108,101.734,28.517,161.345h-340.845v-36
		h308.453v-5.173c-14.703-116.641-72.156-204.766-172.375-264.391c-30.25-18.141-62.858-29.797-97.858-34.984
		c-35-5.187-69.767-5.608-104.313-1.297c-38.892,4.313-75.608,16.203-110.172,35.642c-34.563,19.438-64.358,43.422-89.422,71.922
		c-36.281,40.608-60.483,85.328-72.578,134.141c-12.095,48.813-13.608,96.766-4.531,143.844
		c9.063,47.095,28.5,91.156,58.313,132.188c29.813,41.032,68.047,74.516,114.703,100.422c22.469,12.094,46.655,20.734,72.578,25.922
		c25.905,5.188,51.405,9.517,76.469,12.953v29.813c-11.25,0-20.969,0-29.172,0S3181.588,1367.061,3171.213,1365.061z"/>
	<path stroke="#FFFFFF" stroke-width="80" stroke-miterlimit="10" d="M3997.903,1379.716
		c-46.656-6.047-91.813-21.578-135.438-46.641c-43.625-25.063-78.844-57.031-105.625-95.906
		c-31.969-46.656-52.703-94.609-62.203-143.859s-9.938-96.983-1.297-143.202c8.641-46.22,25.484-89.203,50.547-128.953
		c25.048-39.75,56.359-73.22,93.953-100.438c37.578-27.219,80.781-46.219,129.595-57.031
		c48.813-10.797,101.313-10.155,157.469,1.938c61.345,13.828,112.095,39.109,152.281,75.828
		c40.172,36.719,75.813,81,106.922,132.828V665.622h30v702.438h-30v-202.173c-40.608,74.313-93.53,131.109-158.767,170.423
		C4160.105,1375.623,4084.294,1390.091,3997.903,1379.716z M3988.98,1343.436c30.234,6.063,61.984,7.577,95.25,4.547
		c33.267-3.031,63.72-11.453,91.375-25.281c41.47-19.875,76.688-44.922,105.625-75.172c28.938-30.234,51.188-63.5,66.75-99.781
		c15.547-36.281,24.406-73.875,26.563-112.75s-2.595-76.891-14.25-114.047c-11.672-37.156-30.47-72.141-56.392-104.984
		c-25.922-32.828-58.75-60.906-98.483-84.25c-31.108-18.125-65.453-30.438-103.03-36.922c-37.595-6.469-74.531-6.266-110.813,0.641
		c-46.656,9.5-90.297,27.22-130.906,53.142c-40.608,25.922-72.141,59.608-94.594,101.078
		c-20.75,40.625-35.219,82.313-43.422,125.078c-8.22,42.766-5.828,86.608,7.141,131.53c18.125,61.345,50.313,113.188,96.531,155.531
		S3926.763,1331.341,3988.98,1343.436z"/>
	<path stroke="#FFFFFF" stroke-width="80" stroke-miterlimit="10" d="M4517.372,697.06v-34h110.155v-371h35v371h107.563v34h-107.563
		v671.001h-35v-671L4517.372,697.06L4517.372,697.06z"/>
	<path stroke="#FFFFFF" stroke-width="80" stroke-miterlimit="10" d="M4902.375,292.06v573l4-2.594
		c12.969-19.875,25.5-38.453,37.609-55.733c12.094-17.281,27.233-34.125,45.391-50.548c44.078-39.733,92.703-66.516,145.875-80.344
		c53.172-13.813,105.688-16.188,157.563-7.125c51.875,9.078,100.72,29.392,146.531,60.922c45.812,31.531,83,72.781,111.531,123.75
		c10.375,19.892,19.875,42.156,28.53,66.781c8.642,24.625,12.97,48.172,12.97,70.641v377.251h-30v-362.875
		c0-24.188-4.767-49.25-14.267-75.173c-9.517-25.905-20.328-49.233-32.422-69.983c-20.75-35.422-46.25-65.234-76.5-89.422
		c-30.25-24.188-62.892-42.345-97.892-54.438c-35.016-12.094-71.547-18.141-109.578-18.141s-74.563,5.844-109.563,17.5
		c-35.016,11.655-67.859,29.594-98.547,53.78c-30.688,24.188-55.969,54.438-75.844,90.72c-12.109,20.75-22.703,44.078-31.781,69.983
		c-9.078,25.922-13.609,50.984-13.609,75.172v362.875h-32v-1076L4902.375,292.06L4902.375,292.06z"/>
	<path stroke="#FFFFFF" stroke-width="80" stroke-miterlimit="10" d="M5993.874,1365.061
		c-44.063-7.767-83.813-22.234-119.233-43.392c-35.422-21.157-67.813-47.281-97.188-78.375c-32.845-38-55.953-79.875-69.345-125.656
		c-13.405-45.78-19.233-93.28-17.5-142.53c1.72-31.095,8.642-62.203,20.734-93.313c12.094-31.094,26.797-59.172,44.078-84.233
		c35.406-48.375,76.453-84.673,123.109-108.859c46.655-24.188,94.813-38.016,144.5-41.484c49.688-3.453,98.28,3.031,145.813,19.438
		c47.516,16.422,89.844,41.047,127,73.875c37.156,32.844,66.531,73.233,88.125,121.188s31.109,101.734,28.516,161.345h-340.842v-36
		h308.453v-5.173c-14.703-116.641-72.156-204.766-172.375-264.391c-30.25-18.141-62.859-29.797-97.859-34.984
		c-35-5.187-69.766-5.608-104.313-1.297c-38.892,4.313-75.609,16.203-110.172,35.642c-34.563,19.438-64.359,43.422-89.422,71.922
		c-36.281,40.608-60.484,85.328-72.578,134.141c-12.095,48.813-13.609,96.766-4.531,143.844
		c9.063,47.095,28.5,91.156,58.313,132.188c29.813,41.032,68.047,74.516,114.703,100.422c22.47,12.094,46.656,20.734,72.578,25.922
		c25.906,5.188,51.406,9.517,76.47,12.953v29.813c-11.25,0-20.97,0-29.172,0S6004.249,1367.061,5993.874,1365.061z"/>
</g>
</svg>
